<svg xmlns="http://www.w3.org/2000/svg" viewBox="0 0 42.723 42.723">
  <defs>
    <style>
      .cls-1 {
        fill: #fff;
      }

      .cls-2, .cls-3 {
        fill: #2b2e34;
      }

      .cls-3 {
        stroke: #2b2e34;
        stroke-width: 0.5px;
      }
    </style>
  </defs>
  <g id="Group_63" data-name="Group 63" transform="translate(-500.902 -796.148)">
    <rect id="Rectangle_29" data-name="Rectangle 29" class="cls-1" width="40" height="40" transform="translate(502 798)"/>
    <g id="Group_30" data-name="Group 30" transform="translate(491.902 802.148)">
      <path id="Path_24" data-name="Path 24" class="cls-2" d="M38.838,0H3.884A3.884,3.884,0,0,0,0,3.884V38.838a3.884,3.884,0,0,0,3.884,3.884H38.838a3.884,3.884,0,0,0,3.884-3.884V3.884A3.884,3.884,0,0,0,38.838,0ZM40.78,38.838a1.942,1.942,0,0,1-1.942,1.942H3.884a1.942,1.942,0,0,1-1.942-1.942V3.884A1.942,1.942,0,0,1,3.884,1.942H38.838A1.942,1.942,0,0,1,40.78,3.884Z" transform="translate(9 -6)"/>
    </g>
    <g id="Group_2" data-name="Group 2" transform="translate(500.863 796.186)">
      <g id="Group_8" data-name="Group 8">
        <g id="_235-mail" data-name="235-mail" transform="translate(12.041 14.203)">
          <g id="Group_6" data-name="Group 6" transform="translate(0 0)">
            <path id="Path_6" data-name="Path 6" class="cls-3" d="M17.755,69.818H1.775A1.775,1.775,0,0,0,0,71.593V82.246a1.775,1.775,0,0,0,1.775,1.775H17.755a1.775,1.775,0,0,0,1.775-1.775V71.593A1.775,1.775,0,0,0,17.755,69.818Zm-15.979.888H17.755a.889.889,0,0,1,.3.053l-7.683,7.683a.848.848,0,0,1-1.2,0l0,0L1.478,70.759A.888.888,0,0,1,1.775,70.706ZM.888,82.246V71.593a.888.888,0,0,1,0-.155l5.5,5.482L.888,82.4A.888.888,0,0,1,.888,82.246Zm16.867.888H1.775a.889.889,0,0,1-.3-.053l5.535-5.535,1.522,1.522a1.735,1.735,0,0,0,2.454,0l0,0,1.522-1.522,5.535,5.535A.887.887,0,0,1,17.755,83.134Zm.888-.732-5.5-5.482,5.5-5.482a.888.888,0,0,1,0,.155V82.246A.888.888,0,0,1,18.642,82.4Z" transform="translate(0 -69.818)"/>
          </g>
        </g>
      </g>
    </g>
  </g>
</svg>
