<svg xmlns="http://www.w3.org/2000/svg" viewBox="0 0 42.723 42.723">
  <defs>
    <style>
      .cls-1 {
        fill: #34ceff;
      }
    </style>
  </defs>
  <g id="Group_67" data-name="Group 67" transform="translate(-445.902 -796.148)">
    <g id="_088-linkedin-1" data-name="088-linkedin-1" transform="translate(445.902 796.148)">
      <g id="Group_3" data-name="Group 3">
        <g id="Group_2" data-name="Group 2">
          <path id="Path_2" data-name="Path 2" class="cls-1" d="M38.838,0H3.884A3.884,3.884,0,0,0,0,3.884V38.838a3.884,3.884,0,0,0,3.884,3.884H38.838a3.884,3.884,0,0,0,3.884-3.884V3.884A3.884,3.884,0,0,0,38.838,0ZM40.78,38.838a1.942,1.942,0,0,1-1.942,1.942H3.884a1.942,1.942,0,0,1-1.942-1.942V3.884A1.942,1.942,0,0,1,3.884,1.942H38.838A1.942,1.942,0,0,1,40.78,3.884Z"/>
        </g>
      </g>
    </g>
    <g id="_096-instagram" data-name="096-instagram" transform="translate(457.627 808.227)">
      <g id="Group_5" data-name="Group 5" transform="translate(0 0)">
        <g id="Group_4" data-name="Group 4">
          <path id="Path_5" data-name="Path 5" class="cls-1" d="M155.261,139.636H143.543a3.906,3.906,0,0,0-3.906,3.906V155.26a3.906,3.906,0,0,0,3.906,3.906h11.718a3.906,3.906,0,0,0,3.906-3.906V143.542A3.906,3.906,0,0,0,155.261,139.636Zm-1.953,2.93h2.93v2.93h-2.93ZM149.4,145.5A3.906,3.906,0,1,1,145.5,149.4,3.906,3.906,0,0,1,149.4,145.5Zm7.812,9.765a1.953,1.953,0,0,1-1.953,1.953H143.543a1.953,1.953,0,0,1-1.953-1.953v-6.836h2.051a5.859,5.859,0,1,0,11.62.977,5.787,5.787,0,0,0-.1-.977h2.051v6.836Z" transform="translate(-139.637 -139.636)"/>
        </g>
      </g>
    </g>
  </g>
</svg>
